<svg xmlns="http://www.w3.org/2000/svg" width="230.06" height="176.96" viewBox="0 0 230.06 176.96"><circle cx="109.5" cy="88.48" r="88.48" style="fill:#eee"/><rect x="63" y="87.39" width="90.96" height="90.96" transform="translate(-44.1 -6.31) rotate(-15.25)" style="fill:#1ea896;stroke:#3b556f;stroke-linecap:round;stroke-linejoin:round;stroke-width:3px"/><rect x="72.16" y="155.8" width="91.12" height="21.3" transform="translate(-52.6 -2.7) rotate(-15.25)" style="fill:#fff;stroke:#3b556f;stroke-linecap:round;stroke-linejoin:round;stroke-width:3px"/><circle cx="112.82" cy="65.98" r="8.66" style="fill:#fb5084;stroke:#3b556f;stroke-miterlimit:10;stroke-width:2px"/><line x1="68.98" y1="136.68" x2="88.42" y2="131.38" style="fill:none;stroke:#3b556f;stroke-miterlimit:10;stroke-width:3px"/><line x1="132.76" y1="119.3" x2="139.97" y2="117.33" style="fill:none;stroke:#3b556f;stroke-miterlimit:10;stroke-width:3px"/><line x1="92.21" y1="130.35" x2="128.8" y2="120.38" style="fill:none;stroke:#3b556f;stroke-miterlimit:10;stroke-width:3px"/><circle cx="6.64" cy="68.31" r="5.14" style="fill:none;stroke:#3b556f;stroke-linecap:round;stroke-linejoin:round;stroke-width:3px"/><line x1="6.64" y1="80.47" x2="6.64" y2="84.47" style="fill:none;stroke:#3b556f;stroke-linecap:round;stroke-linejoin:round;stroke-width:3px"/><line x1="6.64" y1="92.16" x2="6.64" y2="119.09" style="fill:none;stroke:#3b556f;stroke-linecap:round;stroke-linejoin:round;stroke-width:3px;stroke-dasharray:7.693604946136475,7.693604946136475"/><polyline points="6.64 122.93 6.64 126.93 10.64 126.93" style="fill:none;stroke:#3b556f;stroke-linecap:round;stroke-linejoin:round;stroke-width:3px"/><line x1="20.86" y1="126.93" x2="36.18" y2="126.93" style="fill:none;stroke:#3b556f;stroke-linecap:round;stroke-linejoin:round;stroke-width:3px;stroke-dasharray:10.217120170593262,10.217120170593262"/><line x1="41.29" y1="126.93" x2="45.29" y2="126.93" style="fill:none;stroke:#3b556f;stroke-linecap:round;stroke-linejoin:round;stroke-width:3px"/><circle cx="223.42" cy="102.35" r="5.14" style="fill:none;stroke:#3b556f;stroke-linecap:round;stroke-linejoin:round;stroke-width:3px"/><line x1="223.42" y1="90.2" x2="223.42" y2="86.2" style="fill:none;stroke:#3b556f;stroke-linecap:round;stroke-linejoin:round;stroke-width:3px"/><line x1="223.42" y1="77.49" x2="223.42" y2="64.42" style="fill:none;stroke:#3b556f;stroke-linecap:round;stroke-linejoin:round;stroke-width:3px;stroke-dasharray:8.709344863891602,8.709344863891602"/><polyline points="223.42 60.07 223.42 56.07 219.42 56.07" style="fill:none;stroke:#3b556f;stroke-linecap:round;stroke-linejoin:round;stroke-width:3px"/><line x1="211.1" y1="56.07" x2="181.99" y2="56.07" style="fill:none;stroke:#3b556f;stroke-linecap:round;stroke-linejoin:round;stroke-width:3px;stroke-dasharray:8.318525314331055,8.318525314331055"/><line x1="177.83" y1="56.07" x2="173.83" y2="56.07" style="fill:none;stroke:#3b556f;stroke-linecap:round;stroke-linejoin:round;stroke-width:3px"/><rect x="73.46" y="34.98" width="90.96" height="90.96" style="fill:#fff;stroke:#3b556f;stroke-linecap:round;stroke-linejoin:round;stroke-width:3px"/><rect x="73.46" y="104.64" width="91.12" height="21.3" style="fill:#fff;stroke:#3b556f;stroke-linecap:round;stroke-linejoin:round;stroke-width:3px"/><polygon points="82.33 104.64 102.37 68.31 118.17 86.48 130.71 78.99 155.04 104.64 82.33 104.64" style="fill:#1ea896;stroke:#3b556f;stroke-miterlimit:10;stroke-width:3px"/><circle cx="142.84" cy="58.61" r="8.66" style="fill:#ff715b;stroke:#3b556f;stroke-miterlimit:10;stroke-width:2px"/><line x1="81.95" y1="115.3" x2="102.1" y2="115.3" style="fill:none;stroke:#3b556f;stroke-miterlimit:10;stroke-width:3px"/><line x1="148.06" y1="115.3" x2="155.53" y2="115.3" style="fill:none;stroke:#3b556f;stroke-miterlimit:10;stroke-width:3px"/><line x1="106.02" y1="115.3" x2="143.95" y2="115.3" style="fill:none;stroke:#3b556f;stroke-miterlimit:10;stroke-width:3px"/></svg>