<svg xmlns="http://www.w3.org/2000/svg" width="237.33" height="250.88" viewBox="0 0 237.33 250.88"><circle cx="118.66" cy="125.44" r="116.68" style="fill:#eee"/><rect x="49.57" y="74.44" width="119.96" height="119.96" transform="translate(-40.83 30.99) rotate(-15.25)" style="fill:#1ea896;stroke:#3b556f;stroke-linecap:round;stroke-linejoin:round;stroke-width:3.956284343339803px"/><rect x="61.65" y="164.67" width="120.16" height="28.09" transform="translate(-52.05 35.75) rotate(-15.25)" style="fill:#fff;stroke:#3b556f;stroke-linecap:round;stroke-linejoin:round;stroke-width:3.956284343339803px"/><circle cx="123.04" cy="95.77" r="11.43" style="fill:#fb5084;stroke:#3b556f;stroke-miterlimit:10;stroke-width:2.6375228955598686px"/><line x1="65.22" y1="189.01" x2="90.86" y2="182.02" style="fill:none;stroke:#3b556f;stroke-miterlimit:10;stroke-width:3.956284343339803px"/><line x1="149.34" y1="166.08" x2="158.85" y2="163.49" style="fill:none;stroke:#3b556f;stroke-miterlimit:10;stroke-width:3.956284343339803px"/><line x1="95.86" y1="180.66" x2="144.11" y2="167.51" style="fill:none;stroke:#3b556f;stroke-miterlimit:10;stroke-width:3.956284343339803px"/><rect x="71.14" y="54.89" width="119.96" height="119.96" style="fill:#fff;stroke:#3b556f;stroke-linecap:round;stroke-linejoin:round;stroke-width:3.956284343339803px"/><rect x="71.14" y="146.76" width="120.16" height="28.09" style="fill:#fff;stroke:#3b556f;stroke-linecap:round;stroke-linejoin:round;stroke-width:3.956284343339803px"/><polygon points="82.84 146.76 109.25 98.84 130.09 122.8 146.64 112.92 178.72 146.76 82.84 146.76" style="fill:#1ea896;stroke:#3b556f;stroke-miterlimit:10;stroke-width:3.956284343339803px"/><circle cx="162.63" cy="86.05" r="11.43" style="fill:#ff715b;stroke:#3b556f;stroke-miterlimit:10;stroke-width:2.6375228955598686px"/><line x1="82.33" y1="160.8" x2="108.9" y2="160.8" style="fill:none;stroke:#3b556f;stroke-miterlimit:10;stroke-width:3.956284343339803px"/><line x1="169.51" y1="160.8" x2="179.37" y2="160.8" style="fill:none;stroke:#3b556f;stroke-miterlimit:10;stroke-width:3.956284343339803px"/><line x1="114.08" y1="160.8" x2="164.09" y2="160.8" style="fill:none;stroke:#3b556f;stroke-miterlimit:10;stroke-width:3.956284343339803px"/><circle cx="118.66" cy="8.76" r="6.78" style="fill:none;stroke:#3b556f;stroke-linecap:round;stroke-linejoin:round;stroke-width:3.956284343339803px"/><line x1="36.3" y1="125.44" x2="29.7" y2="125.44" style="fill:none;stroke:#3b556f;stroke-linecap:round;stroke-linejoin:round;stroke-width:3.956284343339803px"/><path d="M17.91,128h-6.6c0-2.21.07-4.41.19-6.59" transform="translate(-9.34 -2.56)" style="fill:none;stroke:#3b556f;stroke-linecap:round;stroke-linejoin:round;stroke-width:3.956284343339803px"/><path d="M13.49,105.47a116.77,116.77,0,0,1,93.23-92.2" transform="translate(-9.34 -2.56)" style="fill:none;stroke:#3b556f;stroke-linecap:round;stroke-linejoin:round;stroke-width:3.956284343339803px;stroke-dasharray:13.38790512084961,16.065486907958984"/><path d="M114.66,12.09q3.27-.37,6.57-.56" transform="translate(-9.34 -2.56)" style="fill:none;stroke:#3b556f;stroke-linecap:round;stroke-linejoin:round;stroke-width:3.956284343339803px"/><circle cx="118.66" cy="242.12" r="6.78" style="fill:none;stroke:#3b556f;stroke-linecap:round;stroke-linejoin:round;stroke-width:3.956284343339803px"/><line x1="191.3" y1="125.44" x2="197.9" y2="125.44" style="fill:none;stroke:#3b556f;stroke-linecap:round;stroke-linejoin:round;stroke-width:3.956284343339803px"/><line x1="208.79" y1="125.44" x2="223.31" y2="125.44" style="fill:none;stroke:#3b556f;stroke-linecap:round;stroke-linejoin:round;stroke-width:3.956284343339803px;stroke-dasharray:9.075483322143555,10.890579223632812"/><path d="M238.09,128h6.6c0,2.21-.07,4.41-.19,6.59" transform="translate(-9.34 -2.56)" style="fill:none;stroke:#3b556f;stroke-linecap:round;stroke-linejoin:round;stroke-width:3.956284343339803px"/><path d="M242.51,150.53a116.77,116.77,0,0,1-93.23,92.2" transform="translate(-9.34 -2.56)" style="fill:none;stroke:#3b556f;stroke-linecap:round;stroke-linejoin:round;stroke-width:3.956284343339803px;stroke-dasharray:13.38790512084961,16.065486907958984"/><path d="M141.34,243.91q-3.27.38-6.57.56" transform="translate(-9.34 -2.56)" style="fill:none;stroke:#3b556f;stroke-linecap:round;stroke-linejoin:round;stroke-width:3.956284343339803px"/></svg>